<?xml version="1.0" encoding="UTF-8" standalone="no"?>
<!-- Generator: Adobe Illustrator 27.5.0, SVG Export Plug-In . SVG Version: 6.00 Build 0)  -->

<svg
   version="1.1"
   x="0px"
   y="0px"
   viewBox="0 0 622.66498 303.51272"
   xml:space="preserve"
   id="svg338"
   sodipodi:docname="banner.svg"
   width="622.66498"
   height="303.51273"
   inkscape:version="1.2.2 (b0a84865, 2022-12-01)"
   xmlns:inkscape="http://www.inkscape.org/namespaces/inkscape"
   xmlns:sodipodi="http://sodipodi.sourceforge.net/DTD/sodipodi-0.dtd"
   xmlns="http://www.w3.org/2000/svg"
   xmlns:svg="http://www.w3.org/2000/svg"><defs
   id="defs342" /><sodipodi:namedview
   id="namedview340"
   pagecolor="#ffffff"
   bordercolor="#000000"
   borderopacity="0.25"
   inkscape:showpageshadow="2"
   inkscape:pageopacity="0.0"
   inkscape:pagecheckerboard="0"
   inkscape:deskcolor="#d1d1d1"
   showgrid="false"
   inkscape:zoom="1"
   inkscape:cx="605.5"
   inkscape:cy="208.5"
   inkscape:window-width="2560"
   inkscape:window-height="1387"
   inkscape:window-x="0"
   inkscape:window-y="25"
   inkscape:window-maximized="1"
   inkscape:current-layer="OBJECTS" />
<g
   id="BACKGROUND"
   style="display:none"
   transform="translate(-74.492,-136.72229)">
	<rect
   id="XMLID_2656_"
   style="fill:#ffffff"
   width="750"
   height="500"
   x="0"
   y="0" />
</g>
<g
   id="OBJECTS"
   transform="translate(-74.492,-136.72229)">
	<path
   id="XMLID_2651_"
   style="fill:#f05823"
   d="m 496.618,194.878 c -3.602,-3.135 -10.673,-2.91 -11.279,3.371 -0.606,6.281 2.991,8.277 2.991,8.277 0,0 1.634,-4.697 3.971,-7.219 2.336,-2.521 4.317,-4.429 4.317,-4.429 z" />
	<path
   id="XMLID_2650_"
   style="fill:#e2d771"
   d="m 499.339,193.629 c -3.441,-1.345 -6.134,2.436 -7.039,5.678 -0.905,3.242 3.331,1.261 3.331,1.261 z" />
	<path
   id="XMLID_2649_"
   style="fill:#f05823"
   d="m 514.473,205.436 c 1.055,-10.632 -6.758,-12.613 -13.567,-12.073 -6.809,0.54 -9.33,7.937 -8.43,12.073 0.9,4.135 5.129,10.971 5.129,10.971 l 8.306,-5.704 z" />
	<path
   id="XMLID_2646_"
   style="display:none;fill:#f3f6ff"
   d="m 100.411,426.94 c -28.929,-20.384 -3.315,-48.678 18.11,-44.241 21.425,4.437 49.405,-33.891 32.04,-68.976 -17.365,-35.085 25.378,-120.17 94.492,-78.406 69.115,41.764 178.357,49.257 214.054,-0.204 35.697,-49.461 139.383,-5.792 131.161,56.385 -8.222,62.177 6.775,53.459 39.066,67.287 32.291,13.828 56.398,32.782 37.113,55.949 0,0 22.179,-3.702 21.214,12.205 h -587.25 z" />
	<path
   id="XMLID_2641_"
   style="fill:#b8c9ff"
   d="M 690.213,439.141 H 81.437 c -3.836,0 -6.945,-3.109 -6.945,-6.945 v 0 c 0,-3.836 3.109,-6.945 6.945,-6.945 h 608.775 c 3.836,0 6.945,3.109 6.945,6.945 v 0 c 10e-4,3.836 -3.109,6.945 -6.944,6.945 z" />
	<path
   id="XMLID_2640_"
   style="fill:#588e4d"
   d="m 200.281,428.922 c 9.017,-14.491 -8.5,-20.444 -13.268,-12.637 0,0 1.7,-16.656 -12.429,-16.895 -14.13,-0.239 -11.625,20.1 -11.625,20.1 0,0 -0.784,-10.198 -10.411,-8.38 -9.628,1.817 -0.443,14.616 -0.443,14.616 0,0 -2.171,-7.002 -7.682,-1.634 -5.511,5.368 4.226,3.572 4.226,3.572 z" />
	<g
   id="XMLID_2708_">
		<g
   id="XMLID_2642_">
			<path
   id="XMLID_2645_"
   style="fill:#406d35"
   d="m 576.333,421.198 c 17.733,-32.05 53.926,-20.467 53.926,-20.467 l -39.714,23.962 h -10.333 z" />
			<path
   id="XMLID_2644_"
   style="fill:#588e4d"
   d="m 566.358,422.181 c 19.396,-60.741 44.332,-62.961 44.332,-62.961 0,0 -4.433,43.246 -30.479,65.473 z" />
			<path
   id="XMLID_2643_"
   style="fill:#406d35"
   d="m 580.419,402.7 c -2.977,-24.635 -19.048,-27.339 -19.048,-27.339 l 4.987,46.821 14.061,-0.983 v -21.115" />
		</g>
		<path
   id="XMLID_2639_"
   style="fill:#406d35"
   d="m 568.441,415.94 c -4.788,-19.157 -17.706,-17.169 -17.706,-17.169 l 5.146,21.936 h 15.013 z" />
		<path
   id="XMLID_2638_"
   style="fill:#406d35"
   d="m 589.595,423.756 c 9.743,-7.1 26.039,-3.048 26.039,-3.048 l -20.952,10.364 -10.864,-3.823 z" />
	</g>
	<path
   id="XMLID_2637_"
   style="fill:#588e4d"
   d="m 529.779,432.636 c 4.854,-19.842 18.64,-18.494 22.632,-12.889 0,0 2.662,-11 17.301,-9.197 14.64,1.803 14.64,13.154 14.64,13.154 0,0 7.098,-2.759 9.76,1.064 2.662,3.823 1.774,7.868 1.774,7.868 z" />
	<path
   id="XMLID_2636_"
   style="fill:#588e4d"
   d="m 401.945,431.071 c 3.296,-13.472 12.656,-12.557 15.366,-8.751 0,0 1.807,-7.469 11.747,-6.245 9.94,1.224 9.94,8.931 9.94,8.931 0,0 4.819,-1.873 6.627,0.723 1.807,2.595 1.205,5.342 1.205,5.342 z" />
	<g
   id="XMLID_2071_">
		<g
   id="XMLID_2087_">
			<g
   id="XMLID_2104_">
				<rect
   id="XMLID_2106_"
   x="246.41901"
   y="362.41101"
   style="fill:#6e80db"
   width="153.40401"
   height="58.296001" />
				<ellipse
   id="XMLID_2105_"
   style="fill:#6e80db"
   cx="323.121"
   cy="420.707"
   rx="76.702003"
   ry="14.68" />
			</g>
			<ellipse
   id="XMLID_2103_"
   style="fill:#a0b2f2"
   cx="323.121"
   cy="362.41101"
   rx="76.702003"
   ry="14.68" />
			<g
   id="XMLID_2100_">
				<rect
   id="XMLID_2102_"
   x="252.73399"
   y="306.78799"
   style="fill:#465daf"
   width="140.774"
   height="51.362" />
				<ellipse
   id="XMLID_2101_"
   style="fill:#465daf"
   cx="323.121"
   cy="358.14899"
   rx="70.387001"
   ry="12.934" />
			</g>
			<g
   id="XMLID_2097_">
				<rect
   id="XMLID_2099_"
   x="246.41901"
   y="290.14001"
   style="fill:#6e80db"
   width="153.40401"
   height="58.296001" />
				<ellipse
   id="XMLID_2098_"
   style="fill:#6e80db"
   cx="323.121"
   cy="348.436"
   rx="76.702003"
   ry="14.68" />
			</g>
			<ellipse
   id="XMLID_2096_"
   style="fill:#a0b2f2"
   cx="323.121"
   cy="290.14001"
   rx="76.702003"
   ry="14.68" />
			<g
   id="XMLID_2093_">
				<rect
   id="XMLID_2095_"
   x="252.73399"
   y="234.51601"
   style="fill:#465daf"
   width="140.774"
   height="51.362" />
				<ellipse
   id="XMLID_2094_"
   style="fill:#465daf"
   cx="323.121"
   cy="285.87799"
   rx="70.387001"
   ry="12.934" />
			</g>
			<g
   id="XMLID_2090_">
				<rect
   id="XMLID_2092_"
   x="246.41901"
   y="215.74699"
   style="fill:#6e80db"
   width="153.40401"
   height="58.296001" />
				<ellipse
   id="XMLID_2091_"
   style="fill:#6e80db"
   cx="323.121"
   cy="274.043"
   rx="76.702003"
   ry="14.68" />
			</g>
			<ellipse
   id="XMLID_2089_"
   style="fill:#d7e2ff"
   cx="323.121"
   cy="215.74699"
   rx="76.702003"
   ry="14.68" />
			<ellipse
   id="XMLID_2088_"
   style="fill:#a0b2f2"
   cx="323.121"
   cy="215.74699"
   rx="58.761002"
   ry="11.246" />
		</g>
		<g
   id="XMLID_2082_">
			<path
   id="XMLID_2086_"
   style="fill:#2b417f"
   d="m 291.233,258.332 c 0,2.666 -2.161,4.827 -4.827,4.827 -2.666,0 -4.827,-2.161 -4.827,-4.827 0,-2.666 2.161,-4.827 4.827,-4.827 2.666,0 4.827,2.161 4.827,4.827 z" />
			<path
   id="XMLID_2085_"
   style="fill:#57ea5f"
   d="m 315.37,258.332 c 0,2.666 -2.161,4.827 -4.827,4.827 -2.666,0 -4.828,-2.161 -4.828,-4.827 0,-2.666 2.161,-4.827 4.828,-4.827 2.667,0 4.827,2.161 4.827,4.827 z" />
			<circle
   id="XMLID_2084_"
   style="fill:#465daf"
   cx="334.67999"
   cy="258.332"
   r="4.8270001" />
			<path
   id="XMLID_2083_"
   style="fill:#465daf"
   d="m 374.247,263.16 h -20.669 c -2.143,0 -3.879,-1.737 -3.879,-3.879 v -1.896 c 0,-2.143 1.737,-3.879 3.879,-3.879 h 20.669 c 2.143,0 3.879,1.737 3.879,3.879 v 1.896 c 0.001,2.142 -1.736,3.879 -3.879,3.879 z" />
		</g>
		<g
   id="XMLID_2077_">
			<path
   id="XMLID_2081_"
   style="fill:#465daf"
   d="m 291.233,333.756 c 0,2.666 -2.161,4.827 -4.827,4.827 -2.666,0 -4.827,-2.161 -4.827,-4.827 0,-2.666 2.161,-4.827 4.827,-4.827 2.666,0 4.827,2.161 4.827,4.827 z" />
			<path
   id="XMLID_2080_"
   style="fill:#ffffff"
   d="m 315.37,333.756 c 0,2.666 -2.161,4.827 -4.827,4.827 -2.666,0 -4.828,-2.161 -4.828,-4.827 0,-2.666 2.161,-4.827 4.828,-4.827 2.667,0 4.827,2.161 4.827,4.827 z" />
			<circle
   id="XMLID_2079_"
   style="fill:#57ea5f"
   cx="334.67999"
   cy="333.75601"
   r="4.8270001" />
			<path
   id="XMLID_2078_"
   style="fill:#2b417f"
   d="m 374.247,338.584 h -20.669 c -2.143,0 -3.879,-1.737 -3.879,-3.879 v -1.896 c 0,-2.143 1.737,-3.88 3.879,-3.88 h 20.669 c 2.143,0 3.879,1.737 3.879,3.88 v 1.896 c 0.001,2.142 -1.736,3.879 -3.879,3.879 z" />
		</g>
		<g
   id="XMLID_2072_">
			<path
   id="XMLID_2076_"
   style="fill:#2b417f"
   d="m 291.233,409.18 c 0,2.666 -2.161,4.828 -4.827,4.828 -2.666,0 -4.827,-2.161 -4.827,-4.828 0,-2.666 2.161,-4.827 4.827,-4.827 2.666,0 4.827,2.161 4.827,4.827 z" />
			<path
   id="XMLID_2075_"
   style="fill:#465daf"
   d="m 315.37,409.18 c 0,2.666 -2.161,4.828 -4.827,4.828 -2.666,0 -4.828,-2.161 -4.828,-4.828 0,-2.666 2.161,-4.827 4.828,-4.827 2.667,0 4.827,2.161 4.827,4.827 z" />
			<path
   id="XMLID_2074_"
   style="fill:#ffffff"
   d="m 339.507,409.18 c 0,2.666 -2.161,4.828 -4.827,4.828 -2.666,0 -4.827,-2.161 -4.827,-4.828 0,-2.666 2.161,-4.827 4.827,-4.827 2.666,0 4.827,2.161 4.827,4.827 z" />
			<path
   id="XMLID_2073_"
   style="fill:#465daf"
   d="m 374.247,414.008 h -20.669 c -2.143,0 -3.879,-1.737 -3.879,-3.88 v -1.896 c 0,-2.143 1.737,-3.88 3.879,-3.88 h 20.669 c 2.143,0 3.879,1.737 3.879,3.88 v 1.896 c 0.001,2.143 -1.736,3.88 -3.879,3.88 z" />
		</g>
	</g>
	<g
   id="XMLID_2066_"
   style="display:none">
		<path
   id="XMLID_2070_"
   style="fill:#ffbe5f"
   d="m 333.875,362.488 h -78.507 c -0.97,0 -1.91,0.341 -2.654,0.963 l -9.598,11.739 94.898,57.446 v -66.009 c 0,-2.286 -1.853,-4.139 -4.139,-4.139 z" />
		<polygon
   id="XMLID_2069_"
   style="fill:#d2dfff"
   points="265.46,422.562 329.85,421.991 329.85,337.883 265.46,337.883 " />
		<g
   id="XMLID_2067_">
			<path
   id="XMLID_2068_"
   style="fill:#ffcf73"
   d="M 333.63,435.77 H 228.754 c -2.421,0 -4.384,-1.963 -4.384,-4.384 l -22.768,-51.812 c 0,-2.421 1.963,-4.384 4.384,-4.384 h 109.26 l 22.768,56.195 c 0,2.422 -1.963,4.385 -4.384,4.385 z" />
		</g>
	</g>
	<path
   id="XMLID_2065_"
   style="opacity:0.17;fill:#383736"
   d="m 393.511,354.27 v 2.31 c 4.05,1.78 6.31,3.76 6.31,5.83 v 58.3 c 0,8.1 -34.34,14.68 -76.7,14.68 v -35.08 l 49.51,-111.49 27.19,12.79 v 46.83 c 0,2.07 -2.26,4.04 -6.31,5.83 z" />
	<g
   id="XMLID_2041_">
		<g
   id="XMLID_2044_">
			<g
   id="XMLID_2060_">
				<path
   id="XMLID_2064_"
   style="fill:#1e1e1e"
   d="m 479.138,427.249 h -36.026 c 0.388,-7.309 12.319,-8.462 12.701,-26.937 l 5.312,0.884 5.312,-0.884 c 0.383,18.475 12.313,19.628 12.701,26.937 z" />
				<path
   id="XMLID_2063_"
   style="fill:#383736"
   d="m 540.465,403.701 h -158.68 c -6.319,0 -11.442,-5.123 -11.442,-11.442 V 299.12 c 0,-6.319 5.123,-11.442 11.442,-11.442 h 158.68 c 6.319,0 11.442,5.123 11.442,11.442 v 93.139 c 0,6.319 -5.123,11.442 -11.442,11.442 z" />
				<path
   id="XMLID_2062_"
   style="fill:#383736"
   d="M 541.106,278.637 H 381.145 c -5.966,0 -10.802,4.836 -10.802,10.802 v 93.004 h 181.564 v -93.004 c 0,-5.966 -4.836,-10.802 -10.801,-10.802 z" />
				<path
   id="XMLID_2061_"
   style="fill:#1e1e1e"
   d="m 465.64,392.283 c 0,2.493 -2.021,4.515 -4.514,4.515 -2.493,0 -4.514,-2.021 -4.514,-4.515 0,-2.493 2.021,-4.514 4.514,-4.514 2.493,0 4.514,2.021 4.514,4.514 z" />
			</g>
			<path
   id="XMLID_2059_"
   style="fill:#6e80db"
   d="M 545.162,382.443 H 377.769 v -95.41 c 0,-1.424 1.154,-2.577 2.577,-2.577 h 162.239 c 1.424,0 2.577,1.154 2.577,2.577 z" />
			<path
   id="XMLID_2058_"
   style="fill:#1e1e1e"
   d="m 479.494,429.945 h -36.738 c -0.538,0 -0.974,-0.436 -0.974,-0.974 v -0.749 c 0,-0.538 0.436,-0.974 0.974,-0.974 h 36.738 c 0.538,0 0.974,0.436 0.974,0.974 v 0.749 c 0,0.538 -0.436,0.974 -0.974,0.974 z" />
			<path
   id="XMLID_2057_"
   style="fill:#a0b2f2"
   d="M 540.557,293.826 H 382.969 c -1.196,0 -2.166,-0.97 -2.166,-2.166 v -1.665 c 0,-1.196 0.97,-2.166 2.166,-2.166 h 157.588 c 1.196,0 2.166,0.97 2.166,2.166 v 1.665 c -10e-4,1.196 -0.97,2.166 -2.166,2.166 z" />
			<path
   id="XMLID_2056_"
   style="fill:#d7e2ff"
   d="m 527.3,290.828 c 0,0.724 -0.587,1.311 -1.311,1.311 -0.724,0 -1.311,-0.587 -1.311,-1.311 0,-0.724 0.587,-1.311 1.311,-1.311 0.724,0 1.311,0.586 1.311,1.311 z" />
			<path
   id="XMLID_2055_"
   style="fill:#d7e2ff"
   d="m 531.451,290.828 c 0,0.724 -0.587,1.311 -1.312,1.311 -0.725,0 -1.311,-0.587 -1.311,-1.311 0,-0.724 0.587,-1.311 1.311,-1.311 0.724,0 1.312,0.586 1.312,1.311 z" />
			<path
   id="XMLID_2054_"
   style="fill:#d7e2ff"
   d="m 535.602,290.828 c 0,0.724 -0.587,1.311 -1.312,1.311 -0.725,0 -1.311,-0.587 -1.311,-1.311 0,-0.724 0.587,-1.311 1.311,-1.311 0.724,0 1.312,0.586 1.312,1.311 z" />
			
				<circle
   id="XMLID_2053_"
   transform="matrix(0.9239,-0.3827,0.3827,0.9239,-92.3695,178.2769)"
   style="fill:#a0b2f2"
   cx="401.94501"
   cy="321.32501"
   r="15.144" />
			<path
   id="XMLID_2052_"
   style="fill:#4b62b2"
   d="M 415.381,350.418 H 388.51 c -0.943,0 -1.708,-0.765 -1.708,-1.708 v -1.313 c 0,-0.943 0.765,-1.708 1.708,-1.708 h 26.871 c 0.943,0 1.708,0.765 1.708,1.708 v 1.313 c 0,0.944 -0.765,1.708 -1.708,1.708 z" />
			<rect
   id="XMLID_2051_"
   x="386.80099"
   y="354.272"
   style="fill:#a0b2f2"
   width="30.288"
   height="13.312" />
			<path
   id="XMLID_2050_"
   style="fill:#4b62b2"
   d="m 470.542,311.805 h -39.051 c -1.122,0 -2.031,-0.909 -2.031,-2.031 v -1.561 c 0,-1.122 0.909,-2.031 2.031,-2.031 h 39.051 c 1.122,0 2.031,0.909 2.031,2.031 v 1.561 c 0,1.121 -0.909,2.031 -2.031,2.031 z" />
			<path
   id="XMLID_2049_"
   style="fill:#a0b2f2"
   d="m 502.408,324.137 h -70.916 c -1.122,0 -2.031,-0.909 -2.031,-2.031 v -1.561 c 0,-1.122 0.909,-2.031 2.031,-2.031 h 70.916 c 1.122,0 2.031,0.909 2.031,2.031 v 1.561 c 0,1.122 -0.91,2.031 -2.031,2.031 z" />
			<rect
   id="XMLID_2048_"
   x="429.45999"
   y="330.84601"
   style="fill:#a0b2f2"
   width="43.112999"
   height="27.445" />
			<path
   id="XMLID_2047_"
   style="fill:#4b62b2"
   d="m 470.542,367.995 h -39.051 c -1.122,0 -2.031,-0.909 -2.031,-2.031 v -1.561 c 0,-1.122 0.909,-2.031 2.031,-2.031 h 39.051 c 1.122,0 2.031,0.909 2.031,2.031 v 1.561 c 0,1.122 -0.909,2.031 -2.031,2.031 z" />
			<rect
   id="XMLID_2046_"
   x="482.69501"
   y="330.84601"
   style="fill:#a0b2f2"
   width="43.112999"
   height="27.445" />
			<path
   id="XMLID_2045_"
   style="fill:#4b62b2"
   d="m 523.776,367.995 h -39.051 c -1.122,0 -2.031,-0.909 -2.031,-2.031 v -1.561 c 0,-1.122 0.909,-2.031 2.031,-2.031 h 39.051 c 1.122,0 2.031,0.909 2.031,2.031 v 1.561 c 0,1.122 -0.909,2.031 -2.031,2.031 z" />
		</g>
		<polygon
   id="XMLID_2043_"
   style="opacity:0.2;fill:#ffffff"
   points="471.185,382.443 445.592,278.637 408.103,278.637 429.659,382.443 " />
		<polygon
   id="XMLID_2042_"
   style="opacity:0.2;fill:#ffffff"
   points="504.432,382.443 478.84,278.637 460.095,278.637 481.652,382.443 " />
	</g>
	<path
   id="XMLID_2040_"
   style="opacity:0.17;fill:#383736"
   d="m 497.204,278.637 c 1.81,20.141 22.982,20.666 29.895,34.471 6.913,13.805 16.242,31.061 24.807,27.802 v -52.153 l -33.218,-10.171 z" />
	<path
   id="XMLID_2039_"
   style="display:none;fill:#f5949b"
   d="m 435.606,186.073 h 28.819 c 0,0 -9.073,-100.868 -109.941,-58.173 l -2.668,-21.348 -36.291,39.76 44.707,20.428 -2.361,-22.881 c 0.001,0 67.062,-27.7 77.735,42.214 z" />
	<g
   id="XMLID_136_">
		<g
   id="XMLID_183_">
			<polygon
   id="XMLID_193_"
   style="fill:#ffca9f"
   points="539.159,312.901 539.224,305.745 532.881,306.531 533.009,312.527 " />
			<path
   id="XMLID_192_"
   style="fill:#5d74c6"
   d="m 509.504,278.71 32.963,-0.447 0.685,-7.724 c 0.343,-3.864 -2.556,-7.255 -6.426,-7.518 l -26.72,-1.816 c -4.632,-0.315 -8.671,3.122 -9.101,7.745 l -0.038,0.409 c -0.471,5.065 3.552,9.42 8.637,9.351 z" />
			<polygon
   id="XMLID_191_"
   style="fill:#ffca9f"
   points="539.357,309.142 542.769,275.053 530.779,266.513 532.814,308.744 " />
			<path
   id="XMLID_190_"
   style="fill:#ffca9f"
   d="m 540.227,300.446 c -1.76,5.253 -5.872,5.003 -5.872,5.003 l 5.546,0.338 z" />
			<g
   id="XMLID_184_">
				<path
   id="XMLID_189_"
   style="fill:#ffffff"
   d="m 531.116,323.475 19.619,1.195 c -10e-4,-0.36 -0.055,-0.69 -0.157,-0.993 -0.005,-0.006 -0.005,-0.006 -0.005,-0.006 -0.667,-2.008 -3.34,-2.999 -6.352,-4.521 -3.472,-1.755 -3.867,-5.604 -3.867,-5.604 l 0.093,-1.522 c 0.038,-0.619 -0.434,-1.152 -1.053,-1.189 l -5.898,-0.359 c -0.669,-0.041 -1.238,0.512 -1.19,1.181 0.021,0.298 0.063,0.564 0.11,0.789 0.006,0 0.006,0 0.006,0 0.106,0.51 0.242,0.815 0.242,0.815 -1.095,2.775 -1.548,10.214 -1.548,10.214 z" />
				<path
   id="XMLID_188_"
   style="fill:none;stroke:#383736;stroke-miterlimit:10"
   d="m 541.828,317.13 c -2.924,0.253 -3.751,3.116 -3.751,3.116" />
				<path
   id="XMLID_187_"
   style="fill:none;stroke:#383736;stroke-miterlimit:10"
   d="m 543.952,318.734 c -1.812,1.194 -2.121,2.697 -2.121,2.697" />
				<path
   id="XMLID_186_"
   style="fill:#dddddd"
   d="m 531.116,323.475 19.619,1.195 c -10e-4,-0.36 -0.055,-0.69 -0.157,-0.993 -0.005,-0.006 -0.005,-0.006 -0.005,-0.006 0,0 -2.498,0.551 -6.929,0.081 -4.425,-0.47 -9.355,-0.084 -10.664,-1.776 -1.309,-1.692 -0.683,-5.965 -0.029,-7.498 0.339,-0.78 1.533,-0.947 2.636,-0.931 -1.178,-0.18 -2.553,-0.51 -3.163,-1.102 0.106,0.51 0.242,0.815 0.242,0.815 -1.097,2.776 -1.55,10.215 -1.55,10.215 z" />
				<path
   id="XMLID_185_"
   style="fill:#eae9e8"
   d="m 550.735,324.67 c 0.127,0.732 -0.081,1.323 -0.081,1.323 l -19.78,-1.205 c 0,0 -0.071,-0.807 0.241,-1.313 0.314,-0.506 19.62,1.195 19.62,1.195 z" />
			</g>
		</g>
		<g
   id="XMLID_171_">
			<polygon
   id="XMLID_182_"
   style="fill:#ffca9f"
   points="526.015,315.076 525.858,307.921 519.542,308.905 519.857,314.893 " />
			<path
   id="XMLID_181_"
   style="fill:#6e80db"
   d="m 497.02,281.772 31.225,-1.42 0.445,-7.742 c 0.222,-3.873 -2.78,-7.172 -6.657,-7.315 l -28.395,-4.004 c -4.64,-0.171 -7.253,5.392 -7.714,11.055 l -0.025,0.41 c -1.196,7.947 6.04,9.243 11.121,9.016 z" />
			<polygon
   id="XMLID_180_"
   style="fill:#ffca9f"
   points="526.096,311.312 528.446,277.134 516.196,268.971 519.544,311.118 " />
			<path
   id="XMLID_179_"
   style="fill:#ffcf73"
   d="m 488.416,262.335 c -5.962,6.912 -6.072,19.479 1.799,20.285 7.871,0.805 25.981,-0.824 25.981,-0.824 l -0.157,6.927 h 29.124 c 0,0 0.925,-22.581 -2.66,-23.629 -3.585,-1.048 -32.495,-3.888 -32.495,-3.888 z" />
			<path
   id="XMLID_178_"
   style="fill:#ffca9f"
   d="m 526.695,302.593 c -1.596,5.305 -5.713,5.183 -5.713,5.183 l 5.554,0.165 z" />
			<g
   id="XMLID_172_">
				<path
   id="XMLID_177_"
   style="fill:#ffffff"
   d="m 518.305,325.895 19.647,0.584 c -0.012,-0.36 -0.077,-0.688 -0.188,-0.988 -0.005,-0.006 -0.005,-0.006 -0.005,-0.006 -0.729,-1.986 -3.431,-2.894 -6.489,-4.321 -3.525,-1.646 -4.039,-5.481 -4.039,-5.481 l 0.045,-1.524 c 0.018,-0.62 -0.469,-1.137 -1.089,-1.156 l -5.906,-0.176 c -0.67,-0.02 -1.222,0.551 -1.153,1.218 0.031,0.298 0.08,0.562 0.135,0.785 0.006,0 0.006,0 0.006,0 0.122,0.506 0.267,0.807 0.267,0.807 -1.009,2.808 -1.231,10.258 -1.231,10.258 z" />
				<path
   id="XMLID_176_"
   style="fill:none;stroke:#383736;stroke-miterlimit:10"
   d="m 528.814,319.22 c -2.915,0.344 -3.652,3.231 -3.652,3.231" />
				<path
   id="XMLID_175_"
   style="fill:none;stroke:#383736;stroke-miterlimit:10"
   d="m 530.987,320.757 c -1.774,1.25 -2.036,2.762 -2.036,2.762" />
				<path
   id="XMLID_174_"
   style="fill:#dddddd"
   d="m 518.305,325.895 19.647,0.584 c -0.012,-0.36 -0.077,-0.688 -0.188,-0.988 -0.005,-0.006 -0.005,-0.006 -0.005,-0.006 0,0 -2.479,0.629 -6.923,0.297 -4.438,-0.332 -9.353,0.207 -10.714,-1.443 -1.361,-1.651 -0.868,-5.941 -0.263,-7.493 0.315,-0.79 1.503,-0.994 2.605,-1.013 -1.183,-0.144 -2.568,-0.43 -3.196,-1.003 0.122,0.506 0.267,0.807 0.267,0.807 -1.008,2.808 -1.23,10.258 -1.23,10.258 z" />
				<path
   id="XMLID_173_"
   style="fill:#eae9e8"
   d="m 537.952,326.479 c 0.15,0.727 -0.039,1.325 -0.039,1.325 l -19.808,-0.589 c 0,0 -0.096,-0.805 0.201,-1.32 0.296,-0.516 19.646,0.584 19.646,0.584 z" />
			</g>
		</g>
		<path
   id="XMLID_170_"
   style="fill:#79ba6e"
   d="m 494.554,227.308 -9.676,23.967 -8.078,-2.929 7.404,-24.734 c 0.625,-2.086 2.429,-3.602 4.592,-3.856 h 3.715 z" />
		<path
   id="XMLID_169_"
   style="fill:#eae9e8"
   d="m 486.67,261.834 c 0,0 1.194,0.706 9.68,1.735 8.486,1.035 19.689,-1.029 19.689,-1.029 -0.531,-2.542 -2.738,-3.816 -2.738,-3.816 h -23.903 c -1.104,0.308 -2.048,1.826 -2.484,2.622 -0.154,0.291 -0.244,0.488 -0.244,0.488 z" />
		<path
   id="XMLID_168_"
   style="fill:#d6d5d4"
   d="m 486.67,261.834 c 0,0 1.194,0.706 9.68,1.735 8.486,1.035 19.689,-1.029 19.689,-1.029 -0.531,-2.542 -2.738,-3.816 -2.738,-3.816 h -1.422 c 2.399,3.131 -2.441,4.612 -7.164,4.352 -4.723,-0.26 -11.808,0.504 -14.928,-0.86 -1.237,-0.536 -2.192,-0.791 -2.871,-0.87 -0.156,0.291 -0.246,0.488 -0.246,0.488 z" />
		<path
   id="XMLID_167_"
   style="fill:#79ba6e"
   d="m 516.504,220.86 c -3.524,-2.832 -13.327,-4.993 -13.327,-4.993 h -2.985 c 0,0 -11.891,2.214 -13.809,4.784 l 3.013,38.071 h 23.902 z" />
		<path
   id="XMLID_166_"
   style="fill:#5d8c53"
   d="m 488.33,245.239 c 2.35,10.305 17.988,13.483 17.988,13.483 h -16.92 z" />
		<path
   id="XMLID_165_"
   style="fill:#ffca9f"
   d="m 502.251,264.135 c 3.126,-1.037 5.247,-1.347 6.308,-0.276 1.061,1.071 1.379,3.839 2.015,4.683 0.636,0.844 -2.398,0.251 -2.525,-0.62 0,0 -5.027,2.047 -7.934,-0.685 -2.907,-2.732 0,-3.379 0,-3.379 z" />
		<path
   id="XMLID_164_"
   style="fill:#ffca9f"
   d="m 478.422,259.96 21.694,7.278 2.135,-3.103 -26.135,-13.929 -0.95,1.923 c -1.512,3.058 0.022,6.746 3.256,7.831 z" />
		<polygon
   id="XMLID_163_"
   style="fill:#fca781"
   points="483.917,254.41 475.886,250.67 476.603,248.99 484.598,251.493 484.598,251.981 " />
		<path
   id="XMLID_162_"
   style="fill:#79ba6e"
   d="m 508.05,227.308 9.676,23.967 8.078,-2.929 -7.404,-24.734 c -0.625,-2.086 -2.429,-3.602 -4.592,-3.856 h -3.793 z" />
		<path
   id="XMLID_161_"
   style="fill:#5d8c53"
   d="m 514.588,243.503 0.72,-8.504 c 0,0 1.784,13.85 6.822,13.656 5.039,-0.193 -4.145,3.27 -4.145,3.27 z" />
		<path
   id="XMLID_160_"
   style="fill:#5d8c53"
   d="m 480.41,244.223 c 5.51,0.896 8.683,-7.602 8.683,-7.602 l 0.68,2.153 -3.389,8.774 -5.973,-2.768 v -0.557 z" />
		<polygon
   id="XMLID_159_"
   style="fill:#eae9e8"
   points="494.554,217.15 502.251,228.087 508.05,217.239 501.871,216.408 499.482,216.007 493.975,217.304 " />
		<path
   id="XMLID_158_"
   style="fill:#ffab8a"
   d="m 498.546,213.466 v 4.751 c 0,1.46 1.183,2.643 2.643,2.643 v 0 c 1.46,0 2.643,-1.183 2.643,-2.643 v -4.751 l -2.123,-0.708 -0.517,-0.171 -0.517,0.171 z" />
		<path
   id="XMLID_157_"
   style="fill:#ffab8a"
   d="m 512.973,208.31 c 1.146,-1.695 1.736,-0.768 1.411,0.676 -0.325,1.444 -1.971,3.323 -2.448,2.309 l 0.421,-2.434 z" />
		<g
   id="XMLID_155_">
			<path
   id="XMLID_156_"
   style="fill:#ffab8a"
   d="m 497.21,205.772 c -0.51,-1.982 -1.377,-1.307 -1.556,0.163 -0.179,1.47 0.74,3.792 1.53,2.997 l 0.421,-2.434 z" />
		</g>
		<path
   id="XMLID_154_"
   style="fill:#f99273"
   d="m 497.039,206.135 c -0.342,-0.894 -0.843,-0.835 -0.89,-0.353 -0.047,0.482 -0.017,1.893 0.457,2.296 0,0 -0.476,-1.739 -0.134,-2.058 0.34,-0.32 0.567,0.115 0.567,0.115 z" />
		<path
   id="XMLID_153_"
   style="fill:#ffca9f"
   d="m 497.086,206.063 c -0.295,5.249 0.141,10.87 6.693,11.872 5.583,0.854 7.739,-4.069 9.228,-9.111 2.115,-7.501 -4.345,-9.893 -6.346,-10.442 -0.106,-0.028 -0.197,-0.05 -0.276,-0.071 l -0.033,-0.006 c -0.079,-0.007 -0.175,-0.017 -0.284,-0.026 -2.073,-0.156 -8.456,0.007 -8.982,7.784 z" />
		<g
   id="XMLID_150_">
			<path
   id="XMLID_152_"
   style="fill:#5c301d"
   d="m 508.86,208.669 c -0.108,0.624 0.033,1.169 0.315,1.217 0.282,0.049 0.597,-0.417 0.705,-1.041 0.108,-0.624 -0.033,-1.169 -0.314,-1.217 -0.283,-0.049 -0.598,0.417 -0.706,1.041 z" />
			<path
   id="XMLID_151_"
   style="fill:#5c301d"
   d="m 502.512,207.57 c -0.108,0.624 0.033,1.168 0.315,1.217 0.282,0.049 0.597,-0.417 0.705,-1.041 0.108,-0.624 -0.033,-1.169 -0.315,-1.217 -0.281,-0.049 -0.597,0.417 -0.705,1.041 z" />
		</g>
		<path
   id="XMLID_149_"
   style="fill:#ffab8a"
   d="m 505.911,212.673 0.525,0.162 c 0.233,0.072 0.471,-0.098 0.478,-0.342 l 0.083,-2.984 z" />
		<path
   id="XMLID_148_"
   style="fill:#ffffff"
   d="m 507.024,214.457 -3.705,-0.66 c 0,0 0.338,1.318 1.834,1.518 1.496,0.2 1.871,-0.858 1.871,-0.858 z" />
		<path
   id="XMLID_147_"
   style="fill:#f05823"
   d="m 513.649,207.328 -1.043,2.739 0.292,-4.336 -0.641,-2.046 -1.543,-1.952 c 0,0 -4.826,1.802 -8.012,0.811 0,0 0.994,-0.341 2.251,-1.808 0,0 -2.942,1.629 -5.701,1.914 0,0 -2.204,2.293 -2.143,3.985 0,0 -1.828,-1.251 -1.447,-3.503 0.38,-2.252 2.738,-5.58 3.073,-5.888 0.334,-0.308 4.532,-1.413 5.112,-1.313 0.58,0.1 5.484,2.194 5.484,2.194 0,0 3.435,2.206 3.896,2.505 0.461,0.299 0.923,2.797 1.044,3.111 0.121,0.314 -0.622,3.587 -0.622,3.587 z" />
		<polygon
   id="XMLID_146_"
   style="fill:#ffca9f"
   points="526.808,253.09 527.848,257.081 526.116,263.431 520.197,262.188 521.076,256.975 519.114,253.581 " />
		<polygon
   id="XMLID_145_"
   style="fill:#eae9e8"
   points="518.556,256.095 516.411,250.568 526.941,247.046 527.848,252.712 " />
		<polygon
   id="XMLID_144_"
   style="fill:#eae9e8"
   points="476.603,248.99 485.677,252.258 487.28,247.046 476.801,242.74 " />
		<path
   id="XMLID_143_"
   style="fill:#f99273"
   d="m 513.117,208.728 c 0.623,-0.727 1.075,-0.503 0.957,-0.033 -0.118,0.47 -0.62,1.789 -1.202,2.009 0,0 1.032,-1.478 0.818,-1.893 -0.214,-0.416 -0.573,-0.083 -0.573,-0.083 z" />
		<g
   id="XMLID_137_">
			<path
   id="XMLID_142_"
   style="fill:#e3f5fc"
   d="m 540.54,266.698 h -34.054 c -1.266,0 -2.214,-1.16 -1.962,-2.401 l 3.074,-15.146 c 0.189,-0.933 1.01,-1.604 1.962,-1.604 h 34.055 c 1.266,0 2.214,1.16 1.962,2.401 l -3.074,15.146 c -0.19,0.933 -1.011,1.604 -1.963,1.604 z" />
			<path
   id="XMLID_141_"
   style="fill:#f8fdff"
   d="m 541.831,266.698 h -34.055 c -1.266,0 -2.214,-1.16 -1.962,-2.401 l 3.074,-15.146 c 0.189,-0.933 1.01,-1.604 1.962,-1.604 h 34.054 c 1.266,0 2.214,1.16 1.962,2.401 l -3.074,15.146 c -0.188,0.933 -1.009,1.604 -1.961,1.604 z" />
			<path
   id="XMLID_140_"
   style="fill:#e3f5fc"
   d="M 536.913,269.896 H 501.97 c -0.883,0 -1.599,-0.716 -1.599,-1.599 v 0 c 0,-0.883 0.716,-1.599 1.599,-1.599 h 34.943 c 0.883,0 1.599,0.716 1.599,1.599 v 0 c 0,0.883 -0.716,1.599 -1.599,1.599 z" />
			<path
   id="XMLID_139_"
   style="fill:#f8fdff"
   d="m 541.869,269.896 h -34.943 c -0.883,0 -1.599,-0.716 -1.599,-1.599 v 0 c 0,-0.883 0.716,-1.599 1.599,-1.599 h 34.943 c 0.883,0 1.599,0.716 1.599,1.599 v 0 c 0,0.883 -0.716,1.599 -1.599,1.599 z" />
			<path
   id="XMLID_138_"
   style="fill:#e3f5fc"
   d="m 529.389,257.407 c 0,1.199 -0.971,2.17 -2.17,2.17 -1.199,0 -2.17,-0.971 -2.17,-2.17 0,-1.198 0.971,-2.17 2.17,-2.17 1.199,0 2.17,0.972 2.17,2.17 z" />
		</g>
	</g>
	<g
   id="XMLID_77_">
		<g
   id="XMLID_86_">
			<polygon
   id="XMLID_135_"
   style="fill:#ffca9f"
   points="183.827,426.728 183.453,419.491 177.089,420.676 177.588,426.728 " />
			<g
   id="XMLID_133_">
				<path
   id="XMLID_134_"
   style="fill:#ffca9f"
   d="m 135.215,361.391 c 0,0 -0.796,2.505 -0.181,4.291 0.615,1.786 0.215,3.431 1.033,5.739 -0.335,0.872 -1.769,-0.209 -2.103,-1.917 -0.334,-1.708 -0.341,-1.273 -0.341,-1.273 0,0 -1.48,4.221 -1.949,5.909 -0.468,1.688 -1.716,0.966 -1.361,-0.313 0.373,-1.342 0.82,-4.28 0.82,-4.28 0,0 -2.087,6.085 -2.929,5.851 -0.962,-0.267 -0.226,-2.181 0.987,-6.491 0,0 -1.634,4.745 -2.52,4.349 -1.032,-0.461 1.237,-5.912 1.237,-5.912 0,0 -1.237,3.743 -2.258,3.407 -0.761,-0.251 1.15,-3.417 2.759,-6.302 1.609,-2.885 2.416,-2.157 2.869,-4.151 z" />
			</g>
			<path
   id="XMLID_132_"
   style="fill:#79ba6e"
   d="m 139.874,324.691 -1.352,1.654 c -0.798,0.977 -1.351,2.13 -1.613,3.363 l -5.631,30.59 3.994,1.673 12.726,-33.796 z" />
			<path
   id="XMLID_131_"
   style="fill:#79ba6e"
   d="m 158.535,302.076 -10.536,26.099 -8.796,-3.19 8.062,-26.933 c 0.68,-2.272 2.646,-3.923 5.001,-4.2 h 4.046 z" />
			
				<rect
   id="XMLID_130_"
   x="159.29401"
   y="336.284"
   transform="rotate(180,169.05425,347.2124)"
   style="fill:#464461"
   width="19.521"
   height="21.857" />
			<polygon
   id="XMLID_129_"
   style="fill:#464461"
   points="185.905,380.358 186.441,337.579 167.932,337.579 172.501,380.358 " />
			<polygon
   id="XMLID_128_"
   style="fill:#2f2f47"
   points="169.841,357.044 169.841,343.52 171.814,343.963 171.814,355.469 " />
			<polygon
   id="XMLID_127_"
   style="fill:#464461"
   points="168.665,380.358 169.2,337.579 154.583,337.579 155.261,380.358 " />
			<path
   id="XMLID_126_"
   style="fill:#79ba6e"
   d="m 187.969,296.158 21.948,11.078 -1.235,8.909 -26.955,-10.585 c -2.069,-0.813 -3.456,-2.778 -3.53,-5 l 1.146,-3.01 4.257,-1.619 c 1.423,-0.542 3.009,-0.459 4.369,0.227 z" />
			<path
   id="XMLID_125_"
   style="fill:#79ba6e"
   d="m 185.452,295.446 c -1.866,-2.427 -15.076,-5.804 -15.076,-5.804 h -2.969 c 0,0 -14.066,1.645 -16.777,5.066 l 2.758,53.608 35.901,-0.426 z" />
			<path
   id="XMLID_124_"
   style="fill:#5d9352"
   d="m 152.548,331.965 c 0.019,0.053 0.038,0.106 0.058,0.158 2.906,7.672 17.17,11.159 22.873,11.682 5.743,0.527 -5.519,2.33 -5.519,2.33 h -16.683" />
			<path
   id="XMLID_123_"
   style="fill:#add3a5"
   d="m 174.693,291.986 c -1.949,5.952 -8.6,7.12 -12.072,-0.254 -0.499,-1.06 0.109,-2.298 1.257,-2.534 2.074,-0.427 5.565,-0.74 9.664,0.528 0.944,0.291 1.459,1.321 1.151,2.26 z" />
			<polygon
   id="XMLID_122_"
   style="fill:#464461"
   points="183.795,422.916 185.905,380.358 172.501,380.358 177.158,422.916 " />
			<polygon
   id="XMLID_121_"
   style="fill:#ffca9f"
   points="131.311,420.767 135.661,414.971 130.016,411.804 126.521,416.769 " />
			<path
   id="XMLID_120_"
   style="fill:#464461"
   d="m 156.481,378.837 -27.847,34.731 5.095,4.253 32.428,-28.824 c 1.263,-1.123 2.043,-2.692 2.174,-4.377 l 0.333,-4.261 z" />
			<path
   id="XMLID_119_"
   style="fill:#d38d4f"
   d="m 176.072,265.151 -1.258,0.233 c 0,0 -2.364,-2.359 -4.583,-3.147 -2.219,-0.787 -8.938,0.699 -8.87,0.686 0.068,-0.013 -5.2,5.201 -5.2,5.201 0,0 -0.843,6.795 -0.22,9.126 0.147,0.551 0.348,1.116 0.582,1.679 1.611,3.874 4.661,6.971 8.413,8.848 1.119,0.559 2.826,1.026 2.841,0.823 0.04,-0.561 4.74,-16.236 4.74,-16.236 l 6.914,4.182 z" />
			<path
   id="XMLID_118_"
   style="fill:#ffab8a"
   d="m 166.014,286.184 v 5.174 c 0,1.589 1.288,2.878 2.878,2.878 v 0 c 1.589,0 2.878,-1.288 2.878,-2.878 v -5.174 l -2.312,-0.771 -0.563,-0.186 -0.563,0.186 z" />
			<path
   id="XMLID_117_"
   style="fill:#ffab8a"
   d="m 178.208,276.222 c 0.529,-2.165 1.482,-1.441 1.697,0.157 0.215,1.598 -0.756,4.138 -1.626,3.283 l -0.491,-2.645 z" />
			<path
   id="XMLID_116_"
   style="fill:#ffca9f"
   d="m 160.754,280.584 c 2.04,5.355 7.04,9.593 11.745,8.72 0.104,-0.019 0.218,-0.021 0.325,-0.04 0.107,-0.034 0.209,-0.073 0.31,-0.116 6.072,-2.398 7.028,-7.488 6.35,-13.178 -1.115,-8.419 -9.053,-7.871 -11.425,-7.511 -0.125,0.02 -0.232,0.039 -0.325,0.055 l -0.037,0.009 c -0.087,0.029 -0.194,0.062 -0.314,0.103 -2.272,0.783 -9.556,3.985 -6.629,11.958 z" />
			<g
   id="XMLID_113_">
				<path
   id="XMLID_115_"
   style="fill:#5c301d"
   d="m 175.738,277.848 c 0.126,0.678 0.476,1.181 0.782,1.124 0.306,-0.057 0.452,-0.652 0.326,-1.33 -0.126,-0.678 -0.476,-1.181 -0.782,-1.124 -0.306,0.057 -0.452,0.652 -0.326,1.33 z" />
				<path
   id="XMLID_114_"
   style="fill:#5c301d"
   d="m 169.598,278.987 c 0.126,0.678 0.476,1.181 0.782,1.124 0.306,-0.057 0.452,-0.652 0.326,-1.33 -0.126,-0.678 -0.476,-1.181 -0.782,-1.124 -0.305,0.057 -0.452,0.652 -0.326,1.33 z" />
			</g>
			<path
   id="XMLID_112_"
   style="fill:#ffab8a"
   d="m 173.727,283.148 0.598,-0.033 c 0.266,-0.015 0.444,-0.279 0.358,-0.53 l -1.044,-3.079 z" />
			<path
   id="XMLID_111_"
   style="fill:#ffffff"
   d="m 174.27,284.784 -4.033,0.727 c 0,0 0.844,1.217 2.447,0.856 1.604,-0.361 1.586,-1.583 1.586,-1.583 z" />
			<path
   id="XMLID_110_"
   style="fill:#d38d4f"
   d="m 161.208,277.054 1.416,1.596 -0.778,1.815 2.444,5.627 c 0,0 -5.536,-6.026 -5.662,-6.701 -0.125,-0.676 -0.53,-5.818 -0.53,-5.818 l 3.183,-0.59 0.71,2.251 z" />
			<g
   id="XMLID_108_">
				<path
   id="XMLID_109_"
   style="fill:#ffca9f"
   d="m 163.261,278.989 c -1.661,-2.395 -2.712,-0.99 -2.224,1.061 0.488,2.051 2.864,4.698 3.526,3.246 l -0.642,-3.459 z" />
			</g>
			<polygon
   id="XMLID_107_"
   style="fill:#5d9352"
   points="152.525,316.796 151.806,308.407 149.447,324.585 " />
			<path
   id="XMLID_106_"
   style="fill:#2f2f47"
   d="m 133.575,407.454 c -2.354,5.092 0.848,7.765 0.848,7.765 l -4.32,-3.605 z" />
			<path
   id="XMLID_105_"
   style="fill:#2f2f47"
   d="m 184.204,415.056 c -0.216,4.356 -4.629,5.418 -4.629,5.418 h 4.361 z" />
			<polygon
   id="XMLID_104_"
   style="fill:#b4c4fc"
   points="176.559,424.092 184.581,424.092 185.302,420.474 175.658,420.474 " />
			<polygon
   id="XMLID_103_"
   style="fill:#b4c4fc"
   points="127.875,414.466 134.033,419.606 136.905,417.29 129.501,411.111 " />
			<g
   id="XMLID_97_">
				<path
   id="XMLID_102_"
   style="fill:#5f7e93"
   d="m 176.31,438.893 h 19.903 c -0.023,-0.364 -0.099,-0.694 -0.22,-0.994 -0.006,-0.006 -0.006,-0.006 -0.006,-0.006 -0.798,-1.988 -3.56,-2.826 -6.698,-4.178 -3.618,-1.56 -4.253,-5.426 -4.253,-5.426 v -1.544 c 0,-0.628 -0.509,-1.137 -1.137,-1.137 h -5.983 c -0.679,0 -1.22,0.594 -1.13,1.267 0.04,0.3 0.098,0.566 0.16,0.79 0.006,0 0.006,0 0.006,0 0.139,0.509 0.295,0.809 0.295,0.809 -0.937,2.872 -0.937,10.419 -0.937,10.419 z" />
				<path
   id="XMLID_101_"
   style="fill:none;stroke:#ffffff;stroke-miterlimit:10"
   d="m 186.745,431.821 c -2.94,0.436 -3.599,3.38 -3.599,3.38" />
				<path
   id="XMLID_100_"
   style="fill:none;stroke:#ffffff;stroke-miterlimit:10"
   d="m 188.991,433.311 c -1.758,1.318 -1.978,2.857 -1.978,2.857" />
				<path
   id="XMLID_99_"
   style="fill:#426070"
   d="m 176.31,438.893 h 19.903 c -0.023,-0.364 -0.099,-0.694 -0.22,-0.994 -0.006,-0.006 -0.006,-0.006 -0.006,-0.006 0,0 -2.491,0.711 -6.998,0.509 -4.502,-0.202 -9.46,0.491 -10.888,-1.138 -1.427,-1.63 -1.058,-5.987 -0.491,-7.576 0.295,-0.809 1.491,-1.052 2.607,-1.104 -1.202,-0.11 -2.612,-0.358 -3.265,-0.919 0.139,0.509 0.295,0.809 0.295,0.809 -0.937,2.872 -0.937,10.419 -0.937,10.419 z" />
				<path
   id="XMLID_98_"
   style="fill:#eae9e8"
   d="m 196.213,438.893 c 0.173,0.731 0,1.342 0,1.342 h -20.066 c 0,0 -0.122,-0.811 0.163,-1.342 0.284,-0.531 19.903,0 19.903,0 z" />
			</g>
			<g
   id="XMLID_91_">
				<path
   id="XMLID_96_"
   style="fill:#5f7e93"
   d="m 117.505,425.091 15.28,12.753 c 0.215,-0.294 0.369,-0.595 0.468,-0.904 -10e-4,-0.008 -10e-4,-0.008 -10e-4,-0.008 0.661,-2.037 -0.922,-4.451 -2.465,-7.5 -1.777,-3.516 0.212,-6.891 0.212,-6.891 l 0.99,-1.186 c 0.402,-0.482 0.338,-1.199 -0.144,-1.602 l -4.593,-3.834 c -0.521,-0.435 -1.317,-0.326 -1.68,0.249 -0.162,0.256 -0.287,0.498 -0.383,0.709 0.005,0.004 0.005,0.004 0.005,0.004 -0.219,0.479 -0.292,0.81 -0.292,0.81 -2.56,1.605 -7.397,7.4 -7.397,7.4 z" />
				<path
   id="XMLID_95_"
   style="fill:none;stroke:#ffffff;stroke-miterlimit:10"
   d="m 130.049,426.348 c -2.536,-1.549 -4.929,0.289 -4.929,0.289" />
				<path
   id="XMLID_94_"
   style="fill:none;stroke:#ffffff;stroke-miterlimit:10"
   d="m 130.818,428.931 c -2.194,-0.114 -3.349,0.926 -3.349,0.926" />
				<path
   id="XMLID_93_"
   style="fill:#426070"
   d="m 117.505,425.091 15.28,12.753 c 0.215,-0.294 0.369,-0.595 0.468,-0.904 -10e-4,-0.008 -10e-4,-0.008 -10e-4,-0.008 0,0 -2.368,-1.05 -5.699,-4.094 -3.327,-3.04 -7.578,-5.685 -7.629,-7.851 -0.052,-2.166 3.024,-5.274 4.478,-6.131 0.745,-0.432 1.819,0.148 2.708,0.823 -0.853,-0.855 -1.776,-1.949 -1.918,-2.798 -0.219,0.479 -0.292,0.81 -0.292,0.81 -2.558,1.605 -7.395,7.4 -7.395,7.4 z" />
				<path
   id="XMLID_92_"
   style="fill:#eae9e8"
   d="m 132.786,437.844 c -0.336,0.672 -0.86,1.03 -0.86,1.03 L 116.52,426.016 c 0,0 0.427,-0.701 0.985,-0.926 0.559,-0.225 15.281,12.754 15.281,12.754 z" />
			</g>
			<path
   id="XMLID_90_"
   style="fill:#f99273"
   d="m 163.402,279.894 c -0.758,-1.101 -1.376,-0.649 -1.535,-0.269 -0.159,0.38 0.973,2.627 1.883,2.876 0,0 -1.395,-1.293 -1.231,-2.322 0.164,-1.029 0.846,-0.116 0.846,-0.116 z" />
			<path
   id="XMLID_89_"
   style="fill:#d38d4f"
   d="m 179.208,274.899 c 1.193,-6.156 -0.721,-10.777 -4.146,-13.459 -3.425,-2.682 -6.287,-1.598 -6.287,-1.598 0,0 -3.097,1.127 -3.202,2.391 -0.106,1.264 -0.398,1.383 -0.398,1.383 0,0 -6.501,4.471 -6.544,6.588 -0.044,2.117 10.308,-0.992 10.308,-0.992 l 5.34,-0.101 3.337,2.985 z" />
			<path
   id="XMLID_88_"
   style="fill:#d38d4f"
   d="m 177.155,271.029 c -2.8,-1.798 -6.052,-0.742 -7.998,0.117 -1.946,0.859 -3.985,2.325 -3.985,2.325 0,0 -0.34,-1.512 0.688,-2.116 0,0 -3.077,2.672 -2.663,5.394 0.414,2.722 0.697,3.757 0.697,3.757 0,0 -1.243,-2.171 -2.741,-2.618 -1.498,-0.447 -2.297,-2.066 -2.017,-2.753 0.281,-0.687 2.165,-5.432 2.165,-5.432 0,0 3.373,-1.849 4.102,-2.075 0.729,-0.226 5.432,-0.826 6.491,-0.706 1.059,0.121 3.526,1.023 3.526,1.023 l 1.906,1.414 z" />
			<path
   id="XMLID_87_"
   style="fill:#a5d39b"
   d="m 152.105,347.027 c -10e-4,-1.437 1.142,-2.612 2.578,-2.658 10.416,-0.334 32.94,-1.062 35.217,-0.304 2.489,0.829 0.622,8.006 0.622,8.006 0,0 -29.156,2.297 -34.045,1.382 -3.993,-0.746 -4.369,-2.9 -4.372,-6.426 z" />
		</g>
		<g
   id="XMLID_80_">
			<g
   id="XMLID_83_">
				<path
   id="XMLID_85_"
   style="fill:#ffca9f"
   d="m 215.807,283.519 c 0,0 0.511,-2.358 -0.206,-3.936 -0.716,-1.579 -0.494,-3.116 -1.44,-5.154 0.231,-0.826 1.634,0.038 2.087,1.569 0.453,1.532 0.421,1.133 0.421,1.133 0,0 0.987,-3.984 1.269,-5.566 0.282,-1.582 1.484,-1.031 1.27,0.168 -0.224,1.258 -0.379,3.981 -0.379,3.981 0,0 1.381,-5.739 2.17,-5.599 0.902,0.161 0.395,1.973 -0.34,6.016 0,0 1.082,-4.477 1.926,-4.191 0.983,0.332 -0.618,5.508 -0.618,5.508 0,0 0.807,-3.527 1.768,-3.308 0.717,0.163 -0.755,3.221 -1.975,5.996 -1.22,2.775 -2.021,2.179 -2.262,4.041 z" />
				<path
   id="XMLID_84_"
   style="fill:#ffb185"
   d="m 216.976,277.506 c 1.572,0.841 1.609,3.33 1.609,3.33 0,0 1.239,-1.98 2.465,-1.923 0,0 -1.264,-0.546 -2.047,0.476 0.001,0 -0.094,-1.977 -2.027,-1.883 z" />
			</g>
			<g
   id="XMLID_81_">
				<path
   id="XMLID_82_"
   style="fill:#79ba6e"
   d="m 206.286,315.505 1.96,0.679 c 3.427,1.187 7.092,-1.018 7.649,-4.601 l 3.672,-28.364 -3.28,-1.428 -8.467,24.852 z" />
			</g>
		</g>
		<path
   id="XMLID_79_"
   style="fill:#a5d39b"
   d="m 130.772,357.044 6.413,1.925 c 0,0 -0.337,3.077 -1.602,3.499 -1.265,0.422 -5.816,-1.602 -5.816,-1.602 0,0 -0.391,-2.241 1.005,-3.822 z" />
		<path
   id="XMLID_78_"
   style="fill:#a5d39b"
   d="m 215.414,281.791 c 2.97,0 4.721,1.357 4.721,1.357 l -0.568,3.286 c 0,0 -4.887,-0.769 -5.405,-1.651 -0.519,-0.881 0.379,-2.992 1.252,-2.992 z" />
	</g>
	<path
   id="XMLID_3_"
   style="display:none;fill:#e1e7ff"
   d="m 508.05,131.801 h 35.13 c 0,0 -2.056,-12.224 -13.791,-8.312 0,0 -2.317,-16.561 -16.561,-16.561 -14.244,0 -10.353,17.05 -10.353,17.05 0,0 -10.962,-12.649 -17.206,-4.613 -6.244,8.036 4.503,12.437 4.503,12.437 h 18.278 z" />
	<path
   id="XMLID_2_"
   style="display:none;fill:#e1e7ff"
   d="m 229.039,163.173 h 35.13 c 0,0 -2.056,-12.224 -13.791,-8.312 0,0 -2.317,-16.561 -16.561,-16.561 -14.244,0 -10.353,17.05 -10.353,17.05 0,0 -10.962,-12.649 -17.206,-4.613 -6.244,8.036 4.503,12.437 4.503,12.437 h 18.278 z" />
	<path
   id="XMLID_1_"
   style="display:none;fill:#e1e7ff"
   d="m 397.15,81.191 h 35.13 c 0,0 -2.056,-12.224 -13.791,-8.312 0,0 -2.317,-16.561 -16.561,-16.561 -14.244,0 -10.353,17.05 -10.353,17.05 0,0 -10.962,-12.649 -17.206,-4.613 -6.244,8.036 4.503,12.437 4.503,12.437 h 18.278 z" /><g
   id="g528"
   transform="matrix(-0.35993177,0,0,0.35993177,368.98651,122.76764)"
   style="display:inline"><path
     id="XMLID_742_"
     style="fill:#e79502;stroke-width:1.25863"
     d="m 157.65046,159.66553 9.24675,24.85765 c 4.15795,11.17752 12.52928,20.40792 23.13956,25.95677 7.05283,3.64373 12.5672,10.04349 15.10763,18.40435 4.21191,14.38599 -2.91253,29.95042 -16.66841,36.11188 -16.19607,7.25925 -34.83119,-0.71699 -40.91299,-17.06627 -2.79255,-7.50731 -2.38644,-15.34995 0.47533,-22.20693 4.58087,-10.91498 4.55098,-23.24824 0.45516,-34.25895 l -9.24692,-24.85764 C 133.90946,152.25906 121.83312,141.74808 107.2713,137.5742 91.689188,133.21013 78.439417,121.33153 73.015295,104.4527 65.070105,79.775671 77.599876,52.704779 101.53225,42.757664 c 26.48719,-10.992451 56.56679,2.222342 66.49625,28.915049 5.89563,15.848806 3.2153,32.893677 -5.63149,45.870247 -8.48005,12.17542 -9.95964,28.10884 -4.74684,42.12249 z" /><path
     id="XMLID_736_"
     style="fill:#e6480b;stroke-width:1.26478;stroke-dasharray:none"
     d="m 82.510632,159.55265 -9.677211,24.82912 c -4.351578,11.16471 -12.905706,20.30751 -23.651832,25.71675 -7.142362,3.55073 -12.78209,9.8944 -15.46466,18.25451 -4.455732,14.38726 2.459204,30.13514 16.183062,36.53968 16.158239,7.54546 35.004347,-0.17748 41.369242,-16.50797 2.922541,-7.49871 2.63683,-15.38417 -0.131196,-22.31763 -4.431998,-11.0371 -4.209779,-23.42733 0.07667,-34.42542 l 9.677463,-24.82906 c 5.58542,-14.33088 17.88182,-24.7026 32.57626,-28.66881 15.72272,-4.14143 29.21927,-15.86891 34.93157,-32.74157 8.36697,-24.668191 -3.79925,-52.060116 -27.68774,-62.426592 -26.43918,-11.456204 -56.864396,1.351145 -67.256101,28.013139 -6.170248,15.830516 -3.742788,32.996513 4.942802,46.171193 8.329632,12.36436 9.683751,28.34401 4.112186,42.39248 z" /><g
     id="XMLID_968_"
     transform="matrix(1.0615585,0,0,1.096244,-619.1478,-251.70725)"
     style="fill:#41a1dd;fill-opacity:1"
     inkscape:transform-center-x="52.909295"
     inkscape:transform-center-y="92.341551"><circle
       id="XMLID_969_"
       style="fill:#41a1dd;fill-opacity:1"
       cx="617.70001"
       cy="383.39999"
       r="24" /></g></g>
</g>
</svg>
