<svg xmlns="http://www.w3.org/2000/svg" enable-background="new 0 0 24 24" viewBox="0 0 24 24" id="kotlin"><linearGradient id="a" x1="-1582" x2="-1581" y1="-1495.328" y2="-1495.328" gradientTransform="rotate(-45 32051.159 -83912.245) scale(31.584)" gradientUnits="userSpaceOnUse"><stop offset="0" stop-color="#c757bc"></stop><stop offset=".108" stop-color="#c757bc"></stop><stop offset=".173" stop-color="#cd5ca9"></stop><stop offset=".492" stop-color="#e8744f"></stop><stop offset=".716" stop-color="#f88316"></stop><stop offset=".823" stop-color="#ff8900"></stop><stop offset="1" stop-color="#ff8900"></stop></linearGradient><polygon fill="url(#a)" points="24 0 12.05 0 .639 12 11.979 12 12.032 11.946 24 0"></polygon><linearGradient id="b" x1="-1582" x2="-1581" y1="-1494.622" y2="-1494.622" gradientTransform="rotate(-45 15635.387 -40897.94) scale(15.3946)" gradientUnits="userSpaceOnUse"><stop offset="0" stop-color="#00afff"></stop><stop offset=".296" stop-color="#00afff"></stop><stop offset=".694" stop-color="#5282ff"></stop><stop offset="1" stop-color="#945dff"></stop></linearGradient><path fill="url(#b)" d="M24,24H0H24L24,24z M12.032,11.946L11.979,12h0.107L12.032,11.946L12.032,11.946z"></path><linearGradient id="c" x1="-1582" x2="-1581" y1="-1494.036" y2="-1494.036" gradientTransform="matrix(7.6364 -7.6366 7.6366 7.6364 23489.887 -665.412)" gradientUnits="userSpaceOnUse"><stop offset="0" stop-color="#00afff"></stop><stop offset=".296" stop-color="#00afff"></stop><stop offset=".694" stop-color="#5282ff"></stop><stop offset="1" stop-color="#945dff"></stop></linearGradient><polygon fill="url(#c)" points="12.05 0 0 0 0 12.672 0 12 .639 12 12.05 0"></polygon><linearGradient id="d" x1="-1582" x2="-1581" y1="-1495.322" y2="-1495.322" gradientTransform="rotate(-45 32051.159 -83912.245) scale(31.584)" gradientUnits="userSpaceOnUse"><stop offset="0" stop-color="#ad4ca4"></stop><stop offset=".108" stop-color="#ad4ca4"></stop><stop offset=".173" stop-color="#b25093"></stop><stop offset=".492" stop-color="#ca6545"></stop><stop offset=".716" stop-color="#d87213"></stop><stop offset=".823" stop-color="#de7700"></stop><stop offset="1" stop-color="#de7700"></stop></linearGradient><polygon fill="url(#d)" points="11.979 12 .639 12 0 12.672 0 24 11.979 12"></polygon><linearGradient id="e" x1="-1582" x2="-1581" y1="-1494.622" y2="-1494.622" gradientTransform="rotate(-45 15635.387 -40897.94) scale(15.3946)" gradientUnits="userSpaceOnUse"><stop offset="0" stop-color="#0098de"></stop><stop offset=".296" stop-color="#0098de"></stop><stop offset=".694" stop-color="#4771de"></stop><stop offset="1" stop-color="#8151de"></stop></linearGradient><polygon fill="url(#e)" points="12.086 12 11.979 12 0 24 24 24 12.086 12"></polygon><linearGradient id="f" x1="-1582" x2="-1581" y1="-1493.643" y2="-1493.643" gradientTransform="matrix(7.6364 -7.6366 7.6366 7.6364 23489.887 -665.412)" gradientUnits="userSpaceOnUse"><stop offset="0" stop-color="#0098de"></stop><stop offset=".296" stop-color="#0098de"></stop><stop offset=".694" stop-color="#4771de"></stop><stop offset="1" stop-color="#8151de"></stop></linearGradient><polygon fill="url(#f)" points=".639 12 0 12 0 12.672 .639 12"></polygon></svg>